<svg width="965" height="626" viewBox="0 0 965 626" fill="none" xmlns="http://www.w3.org/2000/svg">
<path fill-rule="evenodd" clip-rule="evenodd" d="M360 64.8727C360 75.841 364.592 85.8556 372.16 93.4796V329.77C372.16 344.698 385.771 356.8 402.56 356.8H560.64C577.429 356.8 591.04 344.698 591.04 329.77V264.897H633.6C650.389 264.897 664 252.795 664 237.867V151.37C664 136.441 650.389 124.339 633.6 124.339H591.04V92.9325C598.535 86.5375 603.2 77.5411 603.2 67.5758C603.2 48.1688 585.506 32.4364 563.68 32.4364C560.003 32.4364 556.392 32.8846 552.926 33.7542C541.109 13.3112 517.3 0 490.72 0C467.147 0 445.64 10.4659 432.801 27.3289C425.536 23.625 417.254 21.6242 408.64 21.6242C381.777 21.6242 360 40.9872 360 64.8727ZM439.04 95.9322C439.04 91.5626 433.512 88.9984 429.482 91.4982C423.413 95.2619 416.207 97.3091 408.64 97.3091C388.493 97.3091 372.16 82.7868 372.16 64.8727C372.16 46.9586 388.493 32.4364 408.64 32.4364C416.844 32.4364 424.619 34.8446 430.964 39.217C433.921 41.2542 438.225 40.4574 440.021 37.5405C450.091 21.1911 469.376 10.8121 490.72 10.8121C514.327 10.8121 535.286 23.5201 544.138 42.5955C545.454 45.431 549.157 46.7261 552.293 45.4477C555.832 44.005 559.69 43.2485 563.68 43.2485C578.791 43.2485 591.04 54.1402 591.04 67.5758C591.04 81.0113 578.791 91.903 563.68 91.903C558.12 91.903 552.824 90.4312 548.329 87.7165C545.475 85.9928 541.582 86.7236 539.755 89.3257C529.266 104.265 510.892 113.527 490.72 113.527C487.936 113.527 485.179 113.353 482.461 113.007C478.798 112.541 475.52 115.068 475.52 118.359V145.964C475.52 154.921 467.354 162.182 457.28 162.182C447.206 162.182 439.04 154.921 439.04 145.964V95.9322ZM563.68 102.715C568.984 102.715 574.132 101.781 578.88 100.021V291.927H384.32V102.336C391.596 106.077 399.939 108.121 408.64 108.121C414.988 108.121 421.159 107.035 426.88 104.977V145.964C426.88 160.892 440.491 172.994 457.28 172.994C474.069 172.994 487.68 160.892 487.68 145.964V124.282C488.69 124.32 489.704 124.339 490.72 124.339C513.135 124.339 533.729 114.881 546.77 99.344C551.992 101.545 557.742 102.715 563.68 102.715ZM384.32 329.77V302.739H578.88V329.77C578.88 338.727 570.714 345.988 560.64 345.988H402.56C392.486 345.988 384.32 338.727 384.32 329.77ZM591.04 254.085V135.152H633.6C643.674 135.152 651.84 142.413 651.84 151.37V237.867C651.84 246.824 643.674 254.085 633.6 254.085H591.04ZM481.6 194.618C478.242 194.618 475.52 197.039 475.52 200.024V243.273C475.52 246.258 478.242 248.679 481.6 248.679C484.958 248.679 487.68 246.258 487.68 243.273V200.024C487.68 197.039 484.958 194.618 481.6 194.618ZM530.24 140.558C526.882 140.558 524.16 142.978 524.16 145.964V243.273C524.16 246.258 526.882 248.679 530.24 248.679C533.598 248.679 536.32 246.258 536.32 243.273V145.964C536.32 142.978 533.598 140.558 530.24 140.558ZM432.96 194.618C429.602 194.618 426.88 197.039 426.88 200.024V243.273C426.88 246.258 429.602 248.679 432.96 248.679C436.318 248.679 439.04 246.258 439.04 243.273V200.024C439.04 197.039 436.318 194.618 432.96 194.618ZM629.389 364.827C627.473 354.863 627.477 345.13 628.534 336.385C630.221 322.43 634.539 311.138 638.004 305.456C646.599 291.363 656.773 282.073 667.281 272.477C680.587 260.327 694.409 247.701 706.669 224.545C706.614 254.353 703.058 280.717 692.919 303.283C681.581 328.517 661.872 349.168 629.389 364.827ZM621.036 335.703C618.749 349.184 610.332 362.969 598.834 373.503C587.778 383.633 573.944 390.682 560.072 391.462C544.095 392.361 529.686 391.389 516.168 388.965C506.554 387.241 505.841 386.927 501.721 385.112L501.721 385.112C500.048 384.375 497.814 383.39 494.196 381.964C493.847 381.828 493.49 381.747 493.135 381.718C492.379 381.508 491.551 381.532 490.763 381.84C478.23 386.78 462.039 390.541 448.522 392.965C435.005 395.389 420.595 396.361 404.618 395.462C390.746 394.682 376.913 387.633 365.856 377.503C354.359 366.969 345.941 353.184 343.654 339.703L343.631 339.502C341.802 324.376 336.986 311.912 333.102 305.544C323.941 290.523 313.38 280.879 302.472 270.918L302.471 270.918L302.47 270.917C287.186 256.96 271.192 242.355 258.021 210.922C257.225 209.005 255.025 208.096 253.107 208.892C251.628 209.506 250.749 210.955 250.79 212.465C250.599 217.989 250.502 223.41 250.514 228.729C244.86 222.633 239.049 215.17 233.372 206.487C226.182 195.491 219.251 182.591 213.18 168.101C212.383 166.184 210.183 165.276 208.265 166.072C206.787 166.686 205.908 168.134 205.948 169.644C205.892 171.279 205.844 172.906 205.804 174.523C201.559 169.481 197.111 164.998 192.591 160.442C179.996 147.75 166.817 134.469 156.792 106.797C156.085 104.848 153.931 103.84 151.981 104.547C150.556 105.063 149.635 106.351 149.517 107.768L149.509 107.768C149.137 112.183 148.854 116.524 148.667 120.794C144.294 115.475 139.872 109.117 135.609 101.839C129.881 92.0594 124.448 80.6266 119.812 67.8283C119.105 65.8788 116.951 64.8713 115.001 65.5779C113.576 66.0941 112.654 67.3827 112.537 68.7997L112.529 68.7991C112.188 72.842 111.923 76.8345 111.741 80.7753C109.017 78.9161 106.166 77.2769 103.174 75.7653C98.4574 73.3824 93.3703 71.307 87.8707 69.1721C75.2822 64.2855 70.36 56.9372 63.7708 47.1C61.7691 44.1117 59.6235 40.9086 57.0816 37.4656C55.8465 35.8004 53.4947 35.4515 51.8289 36.6861C50.4666 37.6958 49.9852 39.452 50.5304 40.9693C53.2977 49.1855 54.8167 55.1426 56.0007 59.7864C56.4276 61.4604 56.8139 62.9746 57.2003 64.3787C49.798 60.5608 41.5161 55.6508 33.1208 49.5132C24.0855 42.9077 14.9236 34.8896 6.59472 25.2976C5.23769 23.7299 2.8661 23.5587 1.29785 24.9152C0.11455 25.9388 -0.273225 27.5397 0.19064 28.9375C0.293401 29.2933 0.518471 30.0776 0.832879 31.1732L0.833811 31.1764C1.1978 32.4448 1.68136 34.1298 2.2334 36.0499C10.3442 64.2637 18.6555 93.1614 36.9549 108.76C32.0392 108.313 27.0161 107.962 21.8877 107.692C20.4255 107.565 18.9616 108.305 18.235 109.685C17.268 111.521 17.973 113.793 19.8094 114.759C31.0734 120.678 40.9787 127.757 49.4697 135.03C57.3774 141.803 64.0585 148.743 69.4709 155.075C68.0087 155.02 66.4382 154.99 64.7016 154.958C59.9959 154.87 53.9645 154.757 45.2411 153.94C43.5955 153.703 41.9324 154.586 41.2508 156.188C40.4382 158.097 41.3275 160.303 43.2371 161.115C47.0602 162.753 50.7256 164.129 54.1455 165.412C65.2217 169.569 73.4955 172.674 81.1384 183.81C86.1951 191.179 90.9146 197.669 96.6283 203.188C97.9757 204.489 99.3724 205.731 100.834 206.911C94.8734 206.344 88.7694 205.908 82.5257 205.579C81.063 205.452 79.5982 206.192 78.8713 207.572C77.9044 209.408 78.6093 211.68 80.4457 212.647C93.0417 219.265 104.118 227.181 113.612 235.313C122.769 243.156 130.454 251.199 136.616 258.479C134.71 258.388 132.647 258.35 130.315 258.306C125.053 258.208 118.308 258.082 108.551 257.167C106.906 256.93 105.243 257.814 104.561 259.415C103.748 261.324 104.638 263.53 106.547 264.343C110.816 266.172 114.893 267.702 118.697 269.129C131.128 273.794 140.413 277.278 149.016 289.814L149.944 291.168C160.959 307.235 171.22 322.204 190.618 329.15C194.141 330.411 197.479 331.434 200.689 332.268C191.515 333.951 182.074 336.178 172.347 338.826L172.349 338.831C170.975 339.205 169.875 340.345 169.625 341.841C169.284 343.888 170.667 345.824 172.715 346.165C202.787 351.194 218.79 362.13 234.081 372.581L234.082 372.582C245.043 380.072 255.654 387.324 270.7 392.252C277.087 394.344 289.012 395.997 302.655 394.482C303.563 394.381 304.48 394.266 305.403 394.136C305.506 394.126 305.609 394.111 305.713 394.092C306.258 394.014 306.806 393.93 307.357 393.841C310.825 393.446 315.283 393.681 319.674 394.239C326.266 395.076 332.515 396.598 335.086 397.813C364.309 411.621 386.982 419.96 411.52 421.841C436.024 423.719 455.091 421.245 491.131 409.166C491.267 409.121 491.398 409.068 491.524 409.01C491.618 409.05 491.714 409.086 491.812 409.119C524.757 420.161 528.267 419.873 547.344 418.308L547.35 418.307C549.141 418.16 551.069 418.002 553.171 417.841C577.708 415.96 600.381 407.621 629.604 393.813C632.176 392.598 638.424 391.076 645.017 390.239C649.408 389.681 653.866 389.446 657.334 389.841C657.884 389.93 658.432 390.014 658.978 390.092C659.081 390.111 659.184 390.126 659.287 390.136C660.211 390.266 661.127 390.381 662.036 390.482C675.678 391.997 687.603 390.344 693.99 388.252C709.036 383.324 719.648 376.072 730.609 368.582C745.901 358.131 761.903 347.194 791.975 342.165C794.023 341.824 795.406 339.888 795.065 337.841C794.816 336.345 793.715 335.205 792.342 334.831L792.343 334.826C782.616 332.178 773.176 329.951 764.001 328.268C767.211 327.434 770.549 326.411 774.072 325.15C793.47 318.204 803.732 303.235 814.746 287.168L815.675 285.814C824.278 273.278 833.563 269.794 845.993 265.129C849.797 263.702 853.874 262.172 858.143 260.343C860.053 259.53 860.942 257.324 860.129 255.415C859.448 253.814 857.785 252.93 856.139 253.167C846.383 254.082 839.638 254.208 834.376 254.306C832.043 254.35 829.98 254.388 828.075 254.479C834.236 247.199 841.922 239.156 851.078 231.313C860.573 223.181 871.649 215.265 884.245 208.647C886.081 207.68 886.786 205.408 885.819 203.572C885.092 202.192 883.627 201.452 882.165 201.579C875.921 201.908 869.817 202.344 863.856 202.911C865.318 201.731 866.715 200.489 868.062 199.188C873.776 193.669 878.495 187.179 883.552 179.81C891.195 168.674 899.469 165.569 910.545 161.412C913.965 160.129 917.63 158.753 921.453 157.115C923.363 156.303 924.252 154.097 923.44 152.188C922.758 150.586 921.095 149.703 919.449 149.94C910.726 150.757 904.695 150.87 899.989 150.958C898.252 150.99 896.682 151.02 895.22 151.075C900.632 144.743 907.313 137.803 915.221 131.03C923.712 123.757 933.617 116.678 944.881 110.759C946.717 109.793 947.422 107.521 946.455 105.685C945.729 104.305 944.265 103.565 942.803 103.692C937.674 103.962 932.651 104.313 927.736 104.76C946.035 89.1614 954.346 60.2637 962.457 32.0499C963.004 30.1469 963.484 28.4749 963.847 27.2105L964.238 25.8491C964.356 25.4361 964.445 25.1264 964.5 24.9375C964.964 23.5397 964.576 21.9388 963.393 20.9152C961.824 19.5587 959.453 19.7299 958.096 21.2976C949.767 30.8896 940.605 38.9077 931.57 45.5132C923.174 51.6508 914.892 56.5608 907.49 60.3787C907.877 58.9746 908.263 57.4604 908.69 55.7864C909.874 51.1426 911.393 45.1855 914.16 36.9693C914.705 35.452 914.224 33.6958 912.862 32.6861C911.196 31.4515 908.844 31.8004 907.609 33.4656C905.067 36.9086 902.921 40.1117 900.92 43.1C894.33 52.9372 889.408 60.2854 876.82 65.1721C871.32 67.307 866.233 69.3824 861.516 71.7653C858.524 73.2769 855.673 74.9161 852.95 76.7753C852.767 72.8345 852.503 68.842 852.162 64.7991L852.154 64.7997C852.036 63.3827 851.115 62.0941 849.69 61.5779C847.74 60.8713 845.585 61.8788 844.878 63.8283C840.242 76.6266 834.81 88.0594 829.081 97.8392C824.818 105.117 820.397 111.475 816.023 116.794C815.837 112.524 815.554 108.183 815.181 103.768L815.173 103.768C815.056 102.351 814.134 101.063 812.709 100.547C810.759 99.84 808.605 100.848 807.898 102.797C797.874 130.469 784.695 143.75 772.1 156.442C767.579 160.998 763.131 165.481 758.887 170.523C758.847 168.906 758.799 167.279 758.742 165.644C758.783 164.134 757.904 162.686 756.425 162.072C754.507 161.276 752.307 162.184 751.511 164.101C745.439 178.591 738.509 191.491 731.318 202.487C725.641 211.17 719.83 218.633 714.176 224.729C714.188 219.41 714.091 213.989 713.901 208.465C713.941 206.955 713.062 205.506 711.583 204.892C709.666 204.096 707.465 205.005 706.669 206.922C693.499 238.355 677.505 252.96 662.22 266.917L662.219 266.918C651.311 276.879 640.75 286.523 631.589 301.544C627.704 307.912 622.888 320.376 621.06 335.502L621.036 335.703ZM449.846 400.349C463.52 397.897 479.58 394.165 492.31 389.302C495.348 390.513 497.405 391.403 499.013 392.099C503.706 394.131 504.577 394.508 514.844 396.349C528.948 398.878 543.932 399.894 560.484 398.963C576.165 398.081 591.641 390.261 603.896 379.034C610.653 372.843 616.451 365.593 620.783 357.88C621.219 362.232 621.963 366.668 623.082 371.133C623.136 371.347 623.209 371.558 623.303 371.766C624.156 373.658 626.382 374.501 628.276 373.649C630.087 372.827 631.861 371.99 633.601 371.14C632.375 372.629 631.155 374.157 629.942 375.73C628.674 377.371 628.977 379.728 630.619 380.996C630.802 381.137 630.995 381.259 631.193 381.362L631.193 381.363C633.058 382.325 634.936 383.201 636.819 383.998C632.325 384.914 628.476 386.036 626.397 387.018C597.983 400.444 576.042 408.544 552.611 410.34C550.299 410.517 548.215 410.692 546.304 410.853C528.82 412.323 525.764 412.58 494.196 402C493.967 401.923 493.736 401.87 493.505 401.839C493.464 401.618 493.23 401.598 492.509 401.838C492.036 401.901 491.581 402.054 491.169 402.285C456.923 413.642 435.245 416.115 412.079 414.34C388.648 412.544 366.708 404.444 338.294 391.018C336.215 390.036 332.365 388.914 327.871 387.998C329.755 387.201 331.633 386.325 333.498 385.363L333.497 385.362C333.696 385.259 333.888 385.137 334.072 384.996C335.713 383.728 336.016 381.371 334.748 379.73C333.535 378.157 332.315 376.629 331.089 375.14C332.829 375.99 334.604 376.827 336.415 377.649C338.308 378.501 340.535 377.658 341.388 375.766C341.481 375.558 341.554 375.347 341.609 375.133C342.727 370.668 343.472 366.232 343.907 361.88C348.239 369.593 354.038 376.843 360.795 383.034C373.049 394.261 388.526 402.081 404.206 402.963C420.759 403.894 435.743 402.878 449.846 400.349ZM660.336 382.693C659.705 382.571 659.043 382.471 658.353 382.392C651.996 381.352 645.335 379.542 638.784 376.663C658.969 351.873 680.869 339.069 705.018 334.395C726.306 330.275 749.497 332.409 774.885 338.202C752.999 344.179 739.435 353.446 726.371 362.375C715.86 369.558 705.684 376.513 691.665 381.104C686.023 382.952 675.33 384.395 662.86 383.01C662.025 382.917 661.184 382.812 660.336 382.693ZM903.236 70.813C912.631 66.5018 924.205 60.2058 936.013 51.5731C941.722 47.3998 947.486 42.6769 953.089 37.3634C943.804 69.2344 933.177 100.253 907.263 107.329C900.789 108.397 894.535 109.702 888.511 111.292C886.176 111.908 883.876 112.567 881.611 113.271C882.411 108.037 883.479 102.84 885.041 98.0233C887.082 91.7302 889.973 86.0274 894.237 81.6727C898.578 77.2391 901.32 73.9258 903.236 70.813ZM908.557 114.73C908.674 114.716 908.79 114.697 908.907 114.672C914.911 113.693 921.119 112.923 927.524 112.322C921.288 116.451 915.555 120.852 910.336 125.323C899.233 134.832 890.453 144.655 884.101 152.815C880.627 153.962 876.777 155.868 871.473 159.073C866.602 162.016 862.506 163.818 858.579 165.012C854.593 166.224 850.665 166.856 846.252 167.427C843.097 167.836 840.22 168.118 837.568 168.378C836.102 168.522 834.702 168.659 833.344 168.808C838.285 160.993 842.187 152.669 845.182 143.873C845.767 142.154 846.316 140.417 846.832 138.664C847.399 138.567 847.952 138.338 848.445 137.971C860.62 128.889 874.671 122.715 890.424 118.558C896.238 117.023 902.286 115.762 908.557 114.73ZM853.223 85.9377C856.761 83.0101 860.65 80.6196 864.901 78.4723C869.389 76.2045 874.258 74.2188 879.527 72.1734C889.897 68.1478 895.695 62.9241 900.76 56.3885C898.734 64.1373 897.215 67.8953 888.881 76.4071C883.707 81.6919 880.265 88.4067 877.89 95.7287C875.775 102.249 874.514 109.195 873.621 115.998C865.019 119.214 856.971 123.18 849.505 128.056C852.298 114.866 853.412 100.795 853.223 85.9377ZM845.561 212.755C845.732 212.74 845.904 212.714 846.075 212.675C852.755 211.634 859.658 210.818 866.777 210.184C859.272 215.051 852.406 220.285 846.193 225.606C833.783 236.235 823.98 247.217 816.902 256.322C813.02 257.589 808.725 259.707 802.783 263.298C797.32 266.599 792.718 268.622 788.301 269.965C783.825 271.326 779.422 272.035 774.478 272.675C770.948 273.132 767.737 273.447 764.778 273.737C756.91 274.508 750.739 275.115 743.503 277.766C757.086 253.134 775.196 237.077 797.299 226.698C811.7 219.937 827.842 215.55 845.561 212.755ZM827.426 177.276C830.838 176.579 834.294 176.24 838.274 175.85C840.94 175.589 843.834 175.305 847.193 174.87C851.974 174.251 856.261 173.556 860.756 172.19C865.311 170.805 869.964 168.774 875.357 165.515C885.607 159.321 889.605 158.708 897.612 158.511C890.069 161.949 883.643 166.395 877.343 175.574C872.527 182.592 868.064 188.743 862.854 193.775C857.821 198.636 851.985 202.549 844.246 205.362C825.927 208.265 809.172 212.837 794.121 219.903C791.452 221.156 788.839 222.487 786.281 223.9C791.602 217.234 796.116 210.322 799.9 203.143C811.029 195.417 820.113 186.771 827.426 177.276ZM816.286 127.812C822.675 121.159 829.299 112.315 835.555 101.634C839.055 95.6592 842.443 89.1065 845.613 82.0393C846.229 103.745 844.117 123.666 838.06 141.46C831.974 159.341 821.864 175.143 806.472 188.538C813.469 170.038 816.349 149.916 816.286 127.812ZM759.017 182.52C759.188 182.357 759.345 182.176 759.487 181.977C764.962 174.298 771.121 168.091 777.426 161.737C788.1 150.981 799.175 139.819 808.626 120.413C809.417 145.235 806.713 167.412 798.849 187.413C790.068 209.749 774.786 229.509 750.663 247.392C756.638 227.901 758.926 206.237 759.017 182.52ZM746.865 258.466C746.886 258.466 746.908 258.466 746.929 258.466L746.825 258.607C746.742 258.72 746.658 258.834 746.575 258.947C746.64 258.787 746.705 258.626 746.769 258.465C746.801 258.466 746.833 258.466 746.865 258.466ZM715.555 303.662C741.822 283.531 750.128 282.714 765.485 281.209C768.458 280.917 771.684 280.601 775.42 280.117C780.732 279.429 785.493 278.659 790.479 277.143C795.523 275.609 800.682 273.357 806.668 269.74C819.087 262.235 823.342 262.018 833.88 261.819C824.658 265.766 816.974 270.637 809.466 281.578L808.537 282.932C798.245 297.945 788.657 311.932 771.541 318.06C763.754 320.849 756.996 322.389 750.552 323.294C744.063 324.206 737.84 324.495 731.219 324.758C721.724 324.591 712.528 325.285 703.606 327.012C696.741 328.34 690.053 330.276 683.53 332.892C686.757 328.896 689.68 324.752 692.319 320.459C692.813 320.388 693.302 320.217 693.755 319.939C701.941 314.909 709.175 309.48 715.555 303.662ZM713.991 235.573C721.729 228.274 729.844 218.492 737.616 206.606C742.414 199.268 747.101 191.106 751.51 182.206C751.428 208.266 748.647 231.689 741.101 252.238C733.246 273.63 720.153 291.989 699.435 307.087L699.531 306.878C699.613 306.7 699.695 306.521 699.775 306.342C709.116 285.553 713.121 261.905 713.991 235.573ZM335.301 368.827C337.217 358.863 337.213 349.13 336.156 340.385C334.469 326.43 330.152 315.138 326.687 309.456C318.091 295.363 307.918 286.073 297.41 276.477L297.409 276.477L297.409 276.477C284.103 264.327 270.281 251.701 258.022 228.545C258.076 258.353 261.633 284.717 271.772 307.283C283.11 332.517 302.818 353.168 335.301 368.827ZM304.354 386.693C304.985 386.571 305.648 386.471 306.338 386.392C312.694 385.352 319.355 383.542 325.906 380.663C305.721 355.873 283.822 343.069 259.672 338.395C238.385 334.275 215.194 336.409 189.805 342.202C211.692 348.179 225.255 357.446 238.319 366.375C248.831 373.558 259.007 380.513 273.025 385.104C278.668 386.952 289.36 388.395 301.831 387.01C302.665 386.917 303.506 386.812 304.354 386.693ZM61.4549 74.813C52.0598 70.5018 40.4855 64.2058 28.6773 55.5731C22.9688 51.3998 17.204 46.6769 11.6018 41.3634C20.8861 73.2344 31.513 104.253 57.427 111.329C63.9015 112.397 70.1551 113.702 76.1795 115.292C78.5143 115.908 80.8143 116.567 83.0795 117.271C82.2794 112.037 81.2116 106.84 79.6494 102.023C77.6084 95.7302 74.7171 90.0274 70.4535 85.6727C66.1127 81.2391 63.3705 77.9258 61.4549 74.813ZM56.133 118.73C56.0168 118.716 55.9004 118.697 55.7839 118.672C49.7798 117.693 43.5716 116.923 37.1668 116.322C43.4022 120.451 49.1352 124.852 54.3547 129.323C65.4572 138.832 74.2377 148.655 80.5895 156.815C84.063 157.962 87.9132 159.868 93.2173 163.073C98.0882 166.016 102.185 167.818 106.112 169.012C110.098 170.224 114.026 170.856 118.439 171.427C121.593 171.836 124.47 172.118 127.123 172.378C128.589 172.522 129.988 172.659 131.346 172.808C126.406 164.993 122.503 156.669 119.509 147.873C118.924 146.154 118.375 144.417 117.859 142.664C117.292 142.567 116.738 142.338 116.245 141.971C104.071 132.889 90.0195 126.715 74.2668 122.558C68.4521 121.023 62.4043 119.762 56.133 118.73ZM111.467 89.9377C107.929 87.0101 104.04 84.6196 99.7899 82.4723C95.3011 80.2045 90.4326 78.2188 85.1634 76.1734C74.793 72.1478 68.9959 66.9241 63.9299 60.3885C65.9567 68.1373 67.4758 71.8953 75.8093 80.4071C80.9835 85.6919 84.4255 92.4067 86.8003 99.7287C88.9151 106.249 90.1761 113.195 91.0698 119.998C99.6711 123.214 107.719 127.18 115.186 132.056C112.392 118.866 111.279 104.795 111.467 89.9377ZM119.129 216.755C118.958 216.74 118.786 216.714 118.615 216.675C111.935 215.634 105.032 214.818 97.9139 214.184C105.418 219.051 112.284 224.285 118.497 229.606C130.907 240.235 140.711 251.217 147.788 260.322C151.67 261.589 155.965 263.707 161.907 267.298C167.371 270.599 171.972 272.622 176.39 273.965C180.866 275.326 185.268 276.035 190.212 276.675C193.742 277.132 196.953 277.447 199.912 277.737C207.781 278.508 213.952 279.115 221.187 281.766C207.605 257.134 189.495 241.077 167.391 230.698C152.99 223.937 136.849 219.55 119.129 216.755ZM137.264 181.276C133.853 180.579 130.396 180.24 126.416 179.85C123.75 179.589 120.857 179.305 117.497 178.87C112.716 178.251 108.429 177.556 103.934 176.19C99.3795 174.805 94.7261 172.774 89.333 169.515C79.0836 163.321 75.0856 162.708 67.0779 162.511C74.6215 165.949 81.0475 170.395 87.3476 179.574C92.1635 186.592 96.6265 192.743 101.837 197.775C106.87 202.636 112.705 206.549 120.444 209.362C138.764 212.265 155.519 216.837 170.569 223.903C173.238 225.156 175.852 226.487 178.41 227.9C173.088 221.234 168.575 214.322 164.791 207.143C153.662 199.417 144.577 190.771 137.264 181.276ZM148.405 131.812C142.015 125.159 135.392 116.315 129.135 105.634C125.636 99.6592 122.248 93.1065 119.078 86.0393C118.462 107.745 120.573 127.666 126.63 145.46C132.717 163.341 142.826 179.143 158.218 192.538C151.222 174.038 148.341 153.916 148.405 131.812ZM205.674 186.52C205.503 186.357 205.345 186.176 205.203 185.977C199.728 178.298 193.569 172.091 187.264 165.737C176.591 154.981 165.516 143.819 156.065 124.413C155.273 149.235 157.978 171.412 165.841 191.413C174.623 213.749 189.905 233.509 214.027 251.392C208.053 231.901 205.764 210.237 205.674 186.52ZM217.921 262.465C217.868 262.466 217.815 262.467 217.761 262.466L217.868 262.611C217.951 262.723 218.033 262.835 218.116 262.947C218.051 262.787 217.986 262.626 217.921 262.465ZM249.136 307.662C222.869 287.531 214.563 286.714 199.206 285.209C196.232 284.917 193.006 284.601 189.271 284.117C183.958 283.429 179.197 282.659 174.212 281.143C169.168 279.609 164.009 277.357 158.023 273.74C145.603 266.235 141.348 266.018 130.81 265.819C140.032 269.766 147.717 274.637 155.225 285.578L156.154 286.932C166.445 301.945 176.034 315.932 193.149 322.06C200.937 324.849 207.695 326.389 214.138 327.294C220.627 328.206 226.85 328.495 233.472 328.758C242.967 328.591 252.162 329.285 261.085 331.012C267.949 332.34 274.638 334.276 281.16 336.892C277.933 332.896 275.011 328.752 272.372 324.459C271.877 324.388 271.389 324.217 270.936 323.939C262.75 318.909 255.515 313.48 249.136 307.662ZM250.7 239.573C242.961 232.274 234.847 222.492 227.075 210.606C222.277 203.268 217.59 195.106 213.181 186.206C213.263 212.266 216.043 235.689 223.589 256.238C231.445 277.63 244.538 295.989 265.255 311.087C265.202 310.97 265.148 310.853 265.095 310.736C265.034 310.605 264.975 310.474 264.915 310.342C255.575 289.553 251.57 265.905 250.7 239.573Z" fill="url(#paint0_linear_28_111)"/>
<path d="M130.521 589V482.359H167.875C180.814 482.359 190.629 484.85 197.318 489.83C204.008 494.762 207.353 502.013 207.353 511.583C207.353 516.808 206.01 521.422 203.324 525.426C200.639 529.381 196.903 532.286 192.118 534.142C197.587 535.509 201.884 538.268 205.009 542.418C208.183 546.568 209.77 551.646 209.77 557.652C209.77 567.906 206.498 575.67 199.955 580.943C193.412 586.217 184.086 588.902 171.977 589H130.521ZM152.494 542.564V571.349H171.317C176.493 571.349 180.521 570.128 183.402 567.687C186.332 565.196 187.797 561.778 187.797 557.433C187.797 547.667 182.743 542.711 172.636 542.564H152.494ZM152.494 527.037H168.754C179.838 526.842 185.38 522.423 185.38 513.78C185.38 508.946 183.964 505.479 181.132 503.38C178.349 501.231 173.93 500.157 167.875 500.157H152.494V527.037ZM261.405 590.465C249.784 590.465 240.312 586.9 232.987 579.771C225.712 572.643 222.074 563.146 222.074 551.28V549.229C222.074 541.271 223.612 534.166 226.688 527.916C229.765 521.617 234.11 516.783 239.726 513.414C245.39 509.996 251.835 508.287 259.062 508.287C269.901 508.287 278.422 511.705 284.623 518.541C290.873 525.377 293.998 535.069 293.998 547.618V556.261H243.534C244.218 561.437 246.269 565.587 249.687 568.712C253.153 571.837 257.523 573.399 262.797 573.399C270.951 573.399 277.323 570.445 281.913 564.537L292.313 576.183C289.14 580.675 284.843 584.19 279.423 586.729C274.003 589.22 267.997 590.465 261.405 590.465ZM258.988 525.426C254.789 525.426 251.371 526.842 248.734 529.674C246.146 532.506 244.486 536.559 243.754 541.832H273.197V540.147C273.1 535.46 271.83 531.847 269.389 529.308C266.947 526.72 263.48 525.426 258.988 525.426ZM342.558 590.465C330.937 590.465 321.464 586.9 314.14 579.771C306.864 572.643 303.227 563.146 303.227 551.28V549.229C303.227 541.271 304.765 534.166 307.841 527.916C310.917 521.617 315.263 516.783 320.878 513.414C326.542 509.996 332.987 508.287 340.214 508.287C351.054 508.287 359.574 511.705 365.775 518.541C372.025 525.377 375.15 535.069 375.15 547.618V556.261H324.687C325.37 561.437 327.421 565.587 330.839 568.712C334.306 571.837 338.676 573.399 343.949 573.399C352.104 573.399 358.476 570.445 363.065 564.537L373.466 576.183C370.292 580.675 365.995 584.19 360.575 586.729C355.155 589.22 349.149 590.465 342.558 590.465ZM340.141 525.426C335.941 525.426 332.523 526.842 329.887 529.674C327.299 532.506 325.639 536.559 324.906 541.832H354.35V540.147C354.252 535.46 352.982 531.847 350.541 529.308C348.1 526.72 344.633 525.426 340.141 525.426ZM431.767 529.601C428.886 529.21 426.347 529.015 424.149 529.015C416.142 529.015 410.893 531.725 408.402 537.145V589H387.235V509.752H407.23L407.816 519.2C412.064 511.925 417.948 508.287 425.468 508.287C427.812 508.287 430.009 508.604 432.06 509.239L431.767 529.601ZM465.385 571.349H512.04V589H443.412V482.359H465.385V571.349ZM545.658 589H524.418V509.752H545.658V589ZM523.173 489.244C523.173 486.07 524.223 483.458 526.322 481.407C528.471 479.356 531.376 478.331 535.038 478.331C538.651 478.331 541.532 479.356 543.681 481.407C545.829 483.458 546.903 486.07 546.903 489.244C546.903 492.467 545.805 495.104 543.607 497.154C541.459 499.205 538.603 500.23 535.038 500.23C531.474 500.23 528.593 499.205 526.396 497.154C524.247 495.104 523.173 492.467 523.173 489.244ZM592.826 563.146L607.548 509.752H629.667L602.934 589H582.719L555.985 509.752H578.104L592.826 563.146ZM674.491 590.465C662.87 590.465 653.397 586.9 646.073 579.771C638.798 572.643 635.16 563.146 635.16 551.28V549.229C635.16 541.271 636.698 534.166 639.774 527.916C642.851 521.617 647.196 516.783 652.812 513.414C658.476 509.996 664.921 508.287 672.147 508.287C682.987 508.287 691.508 511.705 697.709 518.541C703.959 525.377 707.084 535.069 707.084 547.618V556.261H656.62C657.304 561.437 659.354 565.587 662.772 568.712C666.239 571.837 670.609 573.399 675.883 573.399C684.037 573.399 690.409 570.445 694.999 564.537L705.399 576.183C702.226 580.675 697.929 584.19 692.509 586.729C687.089 589.22 681.083 590.465 674.491 590.465ZM672.074 525.426C667.875 525.426 664.457 526.842 661.82 529.674C659.232 532.506 657.572 536.559 656.84 541.832H686.283V540.147C686.186 535.46 684.916 531.847 682.475 529.308C680.033 526.72 676.566 525.426 672.074 525.426ZM763.7 529.601C760.819 529.21 758.28 529.015 756.083 529.015C748.075 529.015 742.826 531.725 740.336 537.145V589H719.169V509.752H739.164L739.75 519.2C743.998 511.925 749.882 508.287 757.401 508.287C759.745 508.287 761.942 508.604 763.993 509.239L763.7 529.601ZM804.862 559.044L819.511 509.752H842.216L810.355 601.305L808.598 605.479C803.861 615.831 796.049 621.007 785.16 621.007C782.084 621.007 778.959 620.543 775.785 619.615V603.575L779.008 603.648C783.012 603.648 785.99 603.038 787.943 601.817C789.945 600.597 791.508 598.57 792.631 595.738L795.121 589.22L767.362 509.752H790.141L804.862 559.044Z" fill="white"/>
<path d="M130.521 589V482.359H167.875C180.814 482.359 190.629 484.85 197.318 489.83C204.008 494.762 207.353 502.013 207.353 511.583C207.353 516.808 206.01 521.422 203.324 525.426C200.639 529.381 196.903 532.286 192.118 534.142C197.587 535.509 201.884 538.268 205.009 542.418C208.183 546.568 209.77 551.646 209.77 557.652C209.77 567.906 206.498 575.67 199.955 580.943C193.412 586.217 184.086 588.902 171.977 589H130.521ZM152.494 542.564V571.349H171.317C176.493 571.349 180.521 570.128 183.402 567.687C186.332 565.196 187.797 561.778 187.797 557.433C187.797 547.667 182.743 542.711 172.636 542.564H152.494ZM152.494 527.037H168.754C179.838 526.842 185.38 522.423 185.38 513.78C185.38 508.946 183.964 505.479 181.132 503.38C178.349 501.231 173.93 500.157 167.875 500.157H152.494V527.037ZM261.405 590.465C249.784 590.465 240.312 586.9 232.987 579.771C225.712 572.643 222.074 563.146 222.074 551.28V549.229C222.074 541.271 223.612 534.166 226.688 527.916C229.765 521.617 234.11 516.783 239.726 513.414C245.39 509.996 251.835 508.287 259.062 508.287C269.901 508.287 278.422 511.705 284.623 518.541C290.873 525.377 293.998 535.069 293.998 547.618V556.261H243.534C244.218 561.437 246.269 565.587 249.687 568.712C253.153 571.837 257.523 573.399 262.797 573.399C270.951 573.399 277.323 570.445 281.913 564.537L292.313 576.183C289.14 580.675 284.843 584.19 279.423 586.729C274.003 589.22 267.997 590.465 261.405 590.465ZM258.988 525.426C254.789 525.426 251.371 526.842 248.734 529.674C246.146 532.506 244.486 536.559 243.754 541.832H273.197V540.147C273.1 535.46 271.83 531.847 269.389 529.308C266.947 526.72 263.48 525.426 258.988 525.426ZM342.558 590.465C330.937 590.465 321.464 586.9 314.14 579.771C306.864 572.643 303.227 563.146 303.227 551.28V549.229C303.227 541.271 304.765 534.166 307.841 527.916C310.917 521.617 315.263 516.783 320.878 513.414C326.542 509.996 332.987 508.287 340.214 508.287C351.054 508.287 359.574 511.705 365.775 518.541C372.025 525.377 375.15 535.069 375.15 547.618V556.261H324.687C325.37 561.437 327.421 565.587 330.839 568.712C334.306 571.837 338.676 573.399 343.949 573.399C352.104 573.399 358.476 570.445 363.065 564.537L373.466 576.183C370.292 580.675 365.995 584.19 360.575 586.729C355.155 589.22 349.149 590.465 342.558 590.465ZM340.141 525.426C335.941 525.426 332.523 526.842 329.887 529.674C327.299 532.506 325.639 536.559 324.906 541.832H354.35V540.147C354.252 535.46 352.982 531.847 350.541 529.308C348.1 526.72 344.633 525.426 340.141 525.426ZM431.767 529.601C428.886 529.21 426.347 529.015 424.149 529.015C416.142 529.015 410.893 531.725 408.402 537.145V589H387.235V509.752H407.23L407.816 519.2C412.064 511.925 417.948 508.287 425.468 508.287C427.812 508.287 430.009 508.604 432.06 509.239L431.767 529.601ZM465.385 571.349H512.04V589H443.412V482.359H465.385V571.349ZM545.658 589H524.418V509.752H545.658V589ZM523.173 489.244C523.173 486.07 524.223 483.458 526.322 481.407C528.471 479.356 531.376 478.331 535.038 478.331C538.651 478.331 541.532 479.356 543.681 481.407C545.829 483.458 546.903 486.07 546.903 489.244C546.903 492.467 545.805 495.104 543.607 497.154C541.459 499.205 538.603 500.23 535.038 500.23C531.474 500.23 528.593 499.205 526.396 497.154C524.247 495.104 523.173 492.467 523.173 489.244ZM592.826 563.146L607.548 509.752H629.667L602.934 589H582.719L555.985 509.752H578.104L592.826 563.146ZM674.491 590.465C662.87 590.465 653.397 586.9 646.073 579.771C638.798 572.643 635.16 563.146 635.16 551.28V549.229C635.16 541.271 636.698 534.166 639.774 527.916C642.851 521.617 647.196 516.783 652.812 513.414C658.476 509.996 664.921 508.287 672.147 508.287C682.987 508.287 691.508 511.705 697.709 518.541C703.959 525.377 707.084 535.069 707.084 547.618V556.261H656.62C657.304 561.437 659.354 565.587 662.772 568.712C666.239 571.837 670.609 573.399 675.883 573.399C684.037 573.399 690.409 570.445 694.999 564.537L705.399 576.183C702.226 580.675 697.929 584.19 692.509 586.729C687.089 589.22 681.083 590.465 674.491 590.465ZM672.074 525.426C667.875 525.426 664.457 526.842 661.82 529.674C659.232 532.506 657.572 536.559 656.84 541.832H686.283V540.147C686.186 535.46 684.916 531.847 682.475 529.308C680.033 526.72 676.566 525.426 672.074 525.426ZM763.7 529.601C760.819 529.21 758.28 529.015 756.083 529.015C748.075 529.015 742.826 531.725 740.336 537.145V589H719.169V509.752H739.164L739.75 519.2C743.998 511.925 749.882 508.287 757.401 508.287C759.745 508.287 761.942 508.604 763.993 509.239L763.7 529.601ZM804.862 559.044L819.511 509.752H842.216L810.355 601.305L808.598 605.479C803.861 615.831 796.049 621.007 785.16 621.007C782.084 621.007 778.959 620.543 775.785 619.615V603.575L779.008 603.648C783.012 603.648 785.99 603.038 787.943 601.817C789.945 600.597 791.508 598.57 792.631 595.738L795.121 589.22L767.362 509.752H790.141L804.862 559.044Z" fill="url(#paint1_linear_28_111)"/>
<defs>
<linearGradient id="paint0_linear_28_111" x1="369.5" y1="1.55895e-06" x2="501.5" y2="411.5" gradientUnits="userSpaceOnUse">
<stop offset="0.121472" stop-color="#D2A866"/>
<stop offset="1" stop-color="#A18804"/>
</linearGradient>
<linearGradient id="paint1_linear_28_111" x1="397.544" y1="450" x2="430.27" y2="633.255" gradientUnits="userSpaceOnUse">
<stop offset="0.121472" stop-color="#D2A866"/>
<stop offset="1" stop-color="#A18804"/>
</linearGradient>
</defs>
</svg>
